<?xml version="1.0" encoding="utf-8"?><!-- Uploaded to: SVG Repo, www.svgrepo.com, Generator: SVG Repo Mixer Tools -->
<svg width="16px" height="16px" viewBox="0 -0.5 25 25" color="inherit" fill="currentColor" xmlns="http://www.w3.org/2000/svg">
<path d="M17.0359 11.8372C16.8647 11.46 16.4201 11.293 16.043 11.4643C15.6658 11.6355 15.4989 12.0801 15.6701 12.4572L17.0359 11.8372ZM18.338 13.4172L18.3479 12.6673C18.343 12.6672 18.3382 12.6672 18.3333 12.6672L18.338 13.4172ZM20.5 11.3122L21.25 11.3223V11.3122H20.5ZM20.5 7.10019H21.2501L21.2499 7.08831L20.5 7.10019ZM18.338 5.00019L18.3321 5.75017C18.3374 5.75021 18.3427 5.7502 18.3479 5.75013L18.338 5.00019ZM15.5707 6.21359C15.4361 6.60534 15.6446 7.03199 16.0364 7.16653C16.4282 7.30107 16.8548 7.09255 16.9893 6.7008L15.5707 6.21359ZM15.6678 12.4521C15.8362 12.8306 16.2795 13.0008 16.6579 12.8324C17.0364 12.664 17.2066 12.2207 17.0382 11.8423L15.6678 12.4521ZM16.176 11.3122L16.926 11.3129V11.3122H16.176ZM16.176 7.10019H16.926L16.926 7.09499L16.176 7.10019ZM16.9894 6.68458C17.1172 6.29057 16.9014 5.86757 16.5074 5.73978C16.1134 5.61199 15.6904 5.8278 15.5626 6.22181L16.9894 6.68458ZM17.0244 12.4814C17.209 12.1105 17.058 11.6603 16.6872 11.4758C16.3163 11.2912 15.8661 11.4422 15.6816 11.813L17.0244 12.4814ZM15.645 13.0162L16.0878 13.6215C16.0946 13.6165 16.1013 13.6115 16.108 13.6062L15.645 13.0162ZM15.267 13.5522L14.5481 13.3383C14.5455 13.3472 14.543 13.3562 14.5407 13.3652L15.267 13.5522ZM14.186 17.7522L14.9061 17.9618C14.9083 17.9542 14.9104 17.9467 14.9123 17.9391L14.186 17.7522ZM12.067 18.9422L12.2629 18.2182C12.2571 18.2167 12.2514 18.2152 12.2456 18.2138L12.067 18.9422ZM11.023 18.1683L11.668 17.7856V17.7856L11.023 18.1683ZM10.844 16.8812L10.1209 16.682L10.1191 16.689L10.844 16.8812ZM11.462 14.6382L12.1851 14.8374L12.1881 14.826L11.462 14.6382ZM11.3071 13.9016L11.8961 13.4373L11.8961 13.4373L11.3071 13.9016ZM10.627 13.5792V14.3293L10.6403 14.3291L10.627 13.5792ZM7.095 13.5792V12.8291L7.08468 12.8293L7.095 13.5792ZM5.27414 12.8539L4.751 13.3913V13.3913L5.27414 12.8539ZM4.5 11.0532H3.74994L3.75006 11.0631L4.5 11.0532ZM4.5 7.68619L3.75 7.67601V7.68619H4.5ZM5.27449 5.88618L5.79752 6.42371V6.42371L5.27449 5.88618ZM7.095 5.16119L7.08468 5.91119H7.095V5.16119ZM14.014 5.16119V5.9112L14.0178 5.91118L14.014 5.16119ZM15.6316 6.8342C15.8399 7.19227 16.2989 7.31376 16.657 7.10555C17.0151 6.89734 17.1366 6.43826 16.9284 6.08019L15.6316 6.8342ZM15.6701 12.4572C16.1456 13.5046 17.1925 14.1744 18.3427 14.1672L18.3333 12.6672C17.7749 12.6707 17.2667 12.3456 17.0359 11.8372L15.6701 12.4572ZM18.3281 14.1671C19.9204 14.1882 21.2284 12.9146 21.2499 11.3223L19.7501 11.3021C19.7397 12.0662 19.112 12.6774 18.3479 12.6673L18.3281 14.1671ZM21.25 11.3122V7.10019H19.75V11.3122H21.25ZM21.2499 7.08831C21.2247 5.49864 19.9178 4.2292 18.3281 4.25026L18.3479 5.75013C19.1108 5.74002 19.738 6.34921 19.7501 7.11207L21.2499 7.08831ZM18.3439 4.25021C17.0935 4.24036 15.9768 5.03095 15.5707 6.21359L16.9893 6.7008C17.186 6.12819 17.7267 5.7454 18.3321 5.75017L18.3439 4.25021ZM17.0382 11.8423C16.9641 11.6756 16.9258 11.4953 16.926 11.3129L15.426 11.3115C15.4256 11.7045 15.508 12.0931 15.6678 12.4521L17.0382 11.8423ZM16.926 11.3122V7.10019H15.426L15.426 11.3122H16.926ZM16.926 7.09499C16.925 6.95567 16.9464 6.8171 16.9894 6.68458L15.5626 6.22181C15.47 6.50712 15.4239 6.80545 15.426 7.1054L16.926 7.09499ZM15.6816 11.813C15.5626 12.0519 15.392 12.2614 15.182 12.4261L16.108 13.6062C16.4932 13.304 16.8063 12.9197 17.0244 12.4814L15.6816 11.813ZM15.2022 12.4109C14.8887 12.6402 14.6589 12.966 14.5481 13.3383L15.9859 13.7661C16.0031 13.7081 16.0389 13.6573 16.0878 13.6215L15.2022 12.4109ZM14.5407 13.3652L13.4597 17.5652L14.9123 17.9391L15.9933 13.7391L14.5407 13.3652ZM13.4659 17.5426C13.3159 18.058 12.781 18.3584 12.2629 18.2182L11.8711 19.6662C13.1782 20.0198 14.5278 19.2619 14.9061 17.9618L13.4659 17.5426ZM12.2456 18.2138C12.0034 18.1544 11.7953 18.0001 11.668 17.7856L10.378 18.5511C10.7108 19.1119 11.255 19.5153 11.8884 19.6706L12.2456 18.2138ZM11.668 17.7856C11.5407 17.5711 11.505 17.3145 11.5689 17.0734L10.1191 16.689C9.95193 17.3193 10.0452 17.9903 10.378 18.5511L11.668 17.7856ZM11.5671 17.0804L12.1851 14.8374L10.7389 14.439L10.1209 16.682L11.5671 17.0804ZM12.1881 14.826C12.3131 14.3429 12.205 13.8291 11.8961 13.4373L10.7182 14.366C10.7369 14.3898 10.7435 14.421 10.7359 14.4504L12.1881 14.826ZM11.8961 13.4373C11.5871 13.0454 11.1127 12.8205 10.6137 12.8293L10.6403 14.3291C10.6706 14.3285 10.6994 14.3422 10.7182 14.366L11.8961 13.4373ZM10.627 12.8292L7.095 12.8292V14.3292L10.627 14.3292V12.8292ZM7.08468 12.8293C6.60451 12.8359 6.14139 12.6514 5.79727 12.3164L4.751 13.3913C5.38029 14.0038 6.22721 14.3412 7.10532 14.3291L7.08468 12.8293ZM5.79727 12.3164C5.45316 11.9815 5.25627 11.5235 5.24994 11.0433L3.75006 11.0631C3.76165 11.9412 4.12171 12.7787 4.751 13.3913L5.79727 12.3164ZM5.25 11.0532V7.68619H3.75V11.0532H5.25ZM5.24993 7.69637C5.25645 7.21632 5.45343 6.75852 5.79752 6.42371L4.75146 5.34865C4.12221 5.96092 3.76199 6.79812 3.75007 7.67601L5.24993 7.69637ZM5.79752 6.42371C6.14161 6.0889 6.60462 5.90451 7.08468 5.91112L7.10532 4.41126C6.22743 4.39918 5.38071 4.73637 4.75146 5.34865L5.79752 6.42371ZM7.095 5.91119L14.014 5.91119V4.41119L7.095 4.41119V5.91119ZM14.0178 5.91118C14.6822 5.90782 15.2977 6.25985 15.6316 6.8342L16.9284 6.08019C16.3245 5.04166 15.2115 4.40513 14.0102 4.4112L14.0178 5.91118Z" />
</svg>