<?xml version="1.0" standalone="no"?>
<!DOCTYPE svg PUBLIC "-//W3C//DTD SVG 20010904//EN"
 "http://www.w3.org/TR/2001/REC-SVG-20010904/DTD/svg10.dtd">
<svg version="1.0" xmlns="http://www.w3.org/2000/svg"
 width="1080.000000pt" height="1080.000000pt" viewBox="0 0 1080.000000 1080.000000"
 preserveAspectRatio="xMidYMid meet">
<metadata>
Created by potrace 1.14, written by Peter Selinger 2001-2017
</metadata>
<g transform="translate(0.000000,1080.000000) scale(0.100000,-0.100000)"
fill="#000000" stroke="none">
<path d="M0 5400 l0 -5400 5400 0 5400 0 0 5400 0 5400 -5400 0 -5400 0 0
-5400z m5440 3052 c0 -5 82 -12 181 -15 100 -4 186 -11 193 -16 6 -5 48 -12
94 -16 45 -4 82 -11 82 -15 0 -4 26 -11 58 -15 31 -4 62 -10 67 -15 6 -4 43
-13 83 -20 39 -6 72 -15 72 -20 0 -4 20 -11 45 -14 25 -4 45 -11 45 -15 0 -5
18 -11 40 -15 22 -3 40 -10 40 -15 0 -5 16 -12 35 -15 19 -4 35 -11 35 -15 0
-5 18 -11 40 -15 22 -3 40 -11 40 -16 0 -5 11 -12 25 -16 14 -3 25 -10 25 -14
0 -4 18 -10 40 -14 22 -3 40 -10 40 -15 0 -5 13 -12 29 -16 16 -3 32 -13 35
-21 3 -8 12 -14 21 -14 8 0 15 -4 15 -9 0 -5 14 -12 30 -16 17 -4 30 -10 30
-15 0 -4 11 -11 25 -14 14 -4 25 -10 25 -15 0 -5 13 -12 29 -16 16 -3 32 -13
35 -21 3 -8 12 -14 21 -14 8 0 15 -4 15 -10 0 -5 11 -12 25 -16 14 -3 25 -10
25 -15 0 -5 8 -13 18 -16 9 -4 27 -17 39 -30 12 -13 26 -23 31 -23 5 0 17 -9
27 -20 10 -11 22 -20 26 -20 5 0 24 -16 43 -35 20 -19 40 -35 45 -35 12 0 351
-338 351 -350 0 -5 16 -24 35 -43 19 -19 35 -39 35 -46 0 -6 4 -11 8 -11 5 0
15 -12 23 -27 16 -32 34 -56 67 -90 12 -13 22 -28 22 -33 0 -5 6 -15 13 -22 7
-7 18 -24 25 -38 15 -31 35 -63 43 -70 4 -3 9 -15 13 -27 4 -13 11 -23 16 -23
4 0 11 -12 15 -27 3 -15 10 -30 13 -33 11 -8 112 -215 112 -228 0 -7 4 -12 10
-12 5 0 12 -16 16 -35 3 -19 10 -35 15 -35 4 0 11 -16 15 -35 3 -19 10 -35 14
-35 4 0 10 -18 14 -40 3 -22 10 -40 16 -40 5 0 12 -20 16 -45 3 -25 10 -45 14
-45 4 0 10 -22 14 -50 4 -27 11 -50 15 -50 5 0 12 -27 16 -60 4 -33 10 -60 15
-60 4 0 11 -34 15 -75 4 -41 10 -75 14 -75 14 0 31 -274 31 -506 0 -228 -17
-514 -31 -514 -4 0 -10 -34 -14 -75 -4 -41 -11 -75 -15 -75 -4 0 -11 -25 -15
-55 -3 -30 -10 -55 -15 -55 -5 0 -12 -25 -15 -55 -4 -30 -11 -55 -16 -55 -4 0
-11 -20 -15 -45 -3 -25 -10 -45 -15 -45 -4 0 -11 -16 -15 -35 -3 -19 -10 -35
-14 -35 -4 0 -10 -18 -14 -40 -3 -22 -10 -40 -16 -40 -5 0 -12 -16 -16 -35 -3
-19 -10 -35 -14 -35 -5 0 -11 -14 -15 -30 -4 -16 -10 -30 -15 -30 -5 0 -11
-14 -15 -30 -4 -17 -10 -30 -15 -30 -5 0 -11 -14 -15 -30 -4 -17 -10 -30 -15
-30 -5 0 -11 -14 -15 -30 -4 -17 -10 -30 -15 -30 -5 0 -11 -14 -15 -30 -4 -17
-10 -30 -15 -30 -4 0 -17 -17 -28 -37 -50 -95 -58 -108 -69 -116 -7 -4 -13
-15 -13 -22 0 -8 -3 -15 -8 -15 -4 0 -18 -18 -32 -40 -14 -22 -28 -40 -32 -40
-5 0 -8 -6 -8 -13 0 -7 -9 -23 -20 -35 -11 -12 -20 -24 -20 -27 0 -4 -14 -21
-30 -38 -84 -87 -160 -173 -160 -180 0 -9 -80 -87 -90 -87 -4 0 -34 -27 -68
-60 -33 -33 -63 -60 -67 -60 -4 0 -24 -18 -45 -39 -21 -21 -47 -42 -58 -45
-11 -4 -23 -13 -26 -21 -3 -8 -12 -15 -20 -15 -7 0 -16 -7 -20 -15 -3 -8 -12
-15 -21 -15 -8 0 -15 -4 -15 -9 0 -5 -13 -14 -30 -20 -16 -5 -30 -14 -30 -19
0 -6 -11 -13 -25 -16 -14 -4 -25 -11 -25 -16 0 -6 -7 -10 -15 -10 -7 0 -18 -6
-22 -12 -4 -7 -30 -24 -58 -38 -27 -14 -52 -27 -55 -30 -3 -3 -29 -17 -57 -30
-29 -14 -53 -28 -53 -32 0 -3 -13 -9 -30 -13 -16 -4 -30 -11 -30 -16 0 -5 -7
-9 -16 -9 -8 0 -32 -9 -52 -19 -57 -30 -108 -51 -126 -51 -9 0 -16 -4 -16 -10
0 -5 -16 -12 -35 -16 -19 -3 -37 -10 -40 -14 -3 -5 -23 -11 -45 -15 -22 -4
-42 -11 -45 -15 -3 -5 -26 -12 -50 -16 -25 -3 -45 -10 -45 -14 0 -5 -22 -11
-50 -15 -27 -4 -50 -10 -50 -15 0 -4 -29 -11 -65 -15 -36 -3 -65 -10 -65 -15
0 -4 -39 -11 -87 -15 -49 -4 -91 -12 -95 -19 -5 -8 -117 -11 -403 -11 -286 0
-398 3 -403 11 -4 7 -46 15 -94 19 -49 4 -88 11 -88 15 0 5 -29 12 -65 15 -36
4 -65 11 -65 15 0 5 -25 12 -55 15 -30 4 -55 11 -55 16 0 4 -20 11 -45 15 -25
3 -45 10 -45 15 0 4 -20 11 -45 15 -25 3 -45 10 -45 15 0 4 -20 11 -45 15 -25
3 -45 10 -45 14 0 5 -13 11 -30 15 -16 4 -30 10 -30 15 0 4 -16 11 -35 14 -19
4 -35 11 -35 16 0 4 -13 11 -30 15 -16 4 -30 10 -30 15 0 5 -13 11 -30 15 -16
4 -30 10 -30 15 0 5 -13 11 -30 15 -16 4 -30 10 -30 15 0 4 -12 11 -27 15 -15
3 -30 10 -33 13 -6 9 -38 29 -70 44 -14 7 -31 18 -38 25 -7 7 -20 13 -28 13
-8 0 -14 3 -14 8 0 7 -6 11 -75 47 -35 18 -55 33 -116 90 -9 8 -19 15 -23 15
-4 0 -21 13 -39 30 -18 16 -35 30 -40 30 -4 0 -27 20 -50 45 -24 25 -47 45
-51 45 -10 0 -186 176 -186 186 0 4 -20 27 -45 51 -25 23 -45 47 -45 52 0 5
-12 20 -27 33 -16 12 -34 35 -40 51 -7 15 -17 27 -23 27 -5 0 -10 7 -10 15 0
8 -9 23 -20 32 -11 10 -20 23 -20 29 0 7 -3 14 -7 16 -12 5 -53 66 -53 78 0 5
-4 10 -10 10 -5 0 -10 6 -10 14 0 8 -6 21 -13 28 -7 7 -18 24 -25 38 -15 31
-35 63 -43 70 -4 3 -10 16 -14 30 -4 14 -10 27 -14 30 -10 8 -51 96 -51 109 0
6 -4 11 -9 11 -5 0 -12 13 -16 30 -4 16 -11 30 -15 30 -5 0 -12 16 -16 35 -3
19 -10 35 -14 35 -5 0 -11 14 -15 31 -4 17 -13 42 -21 57 -8 15 -14 35 -14 45
0 9 -4 17 -9 17 -5 0 -12 20 -15 45 -4 25 -11 45 -15 45 -5 0 -12 20 -15 45
-4 25 -11 45 -16 45 -4 0 -11 23 -15 50 -4 28 -11 50 -15 50 -5 0 -12 30 -16
68 -3 37 -10 69 -15 72 -4 3 -13 66 -19 140 -6 74 -16 143 -21 152 -12 23 -12
563 0 586 5 9 14 75 21 147 6 71 15 134 20 140 4 5 11 38 15 73 4 34 10 62 15
62 4 0 10 23 14 50 4 28 11 50 15 50 5 0 12 25 16 55 3 30 10 55 15 55 5 0 12
20 16 45 3 25 10 45 15 45 4 0 11 16 15 35 3 19 10 35 15 35 4 0 11 16 15 35
3 19 10 35 14 35 5 0 11 14 15 30 4 17 10 30 15 30 5 0 11 14 15 30 4 17 10
30 15 30 4 0 10 18 14 39 3 21 13 41 21 45 8 3 15 12 15 21 0 8 4 15 9 15 5 0
12 14 16 30 4 17 10 30 15 30 5 0 11 14 15 30 4 17 11 30 16 30 5 0 11 11 15
25 3 14 10 25 15 25 5 0 9 7 9 15 0 9 6 18 14 21 8 3 17 16 20 30 4 13 11 24
16 24 6 0 10 7 10 15 0 9 7 18 15 21 8 4 15 12 15 19 0 6 9 20 20 30 11 10 20
24 20 32 0 7 5 13 10 13 6 0 16 12 23 28 6 15 24 38 39 52 16 13 28 28 28 33
0 5 20 29 45 54 25 24 45 48 45 53 0 12 159 170 170 170 5 0 31 23 58 50 27
28 53 50 57 50 4 0 24 15 45 33 20 17 47 39 60 47 12 8 36 27 51 42 15 14 37
29 48 33 12 3 21 11 21 16 0 5 7 9 15 9 9 0 18 6 21 14 3 8 17 17 32 21 15 4
29 10 32 13 10 13 69 52 80 52 5 0 10 4 10 9 0 5 14 12 30 16 17 4 30 10 30
15 0 5 14 11 30 15 17 4 30 10 30 15 0 5 14 11 30 15 17 4 30 10 30 15 0 5 14
11 30 15 17 4 30 10 30 15 0 5 14 11 30 15 17 4 30 11 30 15 0 5 16 12 35 16
19 3 35 10 35 15 0 5 18 12 40 15 22 4 40 10 40 15 0 4 16 11 35 15 19 3 35
10 35 14 0 4 20 11 45 14 25 4 45 11 45 15 0 4 35 13 78 20 42 7 82 16 87 20
15 9 118 31 210 44 44 6 83 14 86 19 3 5 87 11 187 15 100 3 182 10 182 15 0
4 23 8 50 8 28 0 50 -4 50 -8z m3167 -3878 c-3 -3 -12 -4 -19 -1 -8 3 -5 6 6
6 11 1 17 -2 13 -5z m-483 -980 c3 -8 2 -12 -4 -9 -6 3 -10 10 -10 16 0 14 7
11 14 -7z m-94 -139 c0 -8 -7 -15 -16 -15 -14 0 -14 3 -4 15 7 8 14 15 16 15
2 0 4 -7 4 -15z m-4732 -556 c-3 -8 -7 -3 -11 10 -4 17 -3 21 5 13 5 -5 8 -16
6 -23z m149 -95 c-3 -3 -12 -4 -19 -1 -8 3 -5 6 6 6 11 1 17 -2 13 -5z m3480
-266 c-3 -8 -6 -5 -6 6 -1 11 2 17 5 13 3 -3 4 -12 1 -19z m8 -38 c-3 -5 -14
-10 -23 -9 -14 0 -13 2 3 9 27 11 27 11 20 0z m-121 -15 c-4 -8 -16 -14 -28
-14 -16 1 -17 2 -3 6 9 2 17 9 17 14 0 5 4 9 10 9 5 0 7 -7 4 -15z m-54 -19
c0 -3 -4 -8 -10 -11 -5 -3 -10 -1 -10 4 0 6 5 11 10 11 6 0 10 -2 10 -4z
m-2660 -37 c0 -6 -4 -7 -10 -4 -5 3 -10 11 -10 16 0 6 5 7 10 4 6 -3 10 -11
10 -16z m2517 -35 c-3 -3 -12 -4 -19 -1 -8 3 -5 6 6 6 11 1 17 -2 13 -5z m-30
-46 c-3 -8 -6 -5 -6 6 -1 11 2 17 5 13 3 -3 4 -12 1 -19z m-2192 -38 c-3 -5
-12 -7 -20 -3 -21 7 -19 13 6 13 11 0 18 -4 14 -10z m1985 6 c0 -2 -9 -6 -20
-9 -11 -3 -20 -1 -20 4 0 5 9 9 20 9 11 0 20 -2 20 -4z m27 -28 c-3 -8 -6 -5
-6 6 -1 11 2 17 5 13 3 -3 4 -12 1 -19z m-1612 -68 c-3 -5 -14 -10 -23 -10
-15 0 -15 2 -2 10 20 13 33 13 25 0z m1190 0 c3 -5 0 -7 -9 -4 -10 4 -16 -2
-18 -18 -3 -22 -4 -21 -9 5 -5 21 -3 27 12 27 10 0 21 -4 24 -10z m82 4 c-3
-3 -12 -4 -19 -1 -8 3 -5 6 6 6 11 1 17 -2 13 -5z m-1130 -36 c-3 -8 -6 -5 -6
6 -1 11 2 17 5 13 3 -3 4 -12 1 -19z m93 8 c0 -2 -9 -6 -20 -9 -11 -3 -18 -1
-14 4 5 9 34 13 34 5z m715 -6 c-3 -5 -14 -10 -23 -10 -15 0 -15 2 -2 10 20
13 33 13 25 0z m60 0 c-3 -5 -13 -10 -21 -10 -8 0 -14 5 -14 10 0 6 9 10 21
10 11 0 17 -4 14 -10z m-705 -22 c0 -6 -6 -5 -15 2 -8 7 -15 14 -15 16 0 2 7
1 15 -2 8 -4 15 -11 15 -16z m370 3 c0 -5 -9 -11 -20 -14 -20 -5 -26 3 -13 16
9 10 33 8 33 -2z m50 -1 c0 -5 -2 -10 -4 -10 -3 0 -8 5 -11 10 -3 6 -1 10 4
10 6 0 11 -4 11 -10z m35 0 c3 -5 1 -10 -4 -10 -6 0 -11 5 -11 10 0 6 2 10 4
10 3 0 8 -4 11 -10z m-245 -4 c0 -2 -9 -6 -20 -9 -11 -3 -18 -1 -14 4 5 9 34
13 34 5z m481 -14 c-7 -2 -18 1 -23 6 -8 8 -4 9 13 5 13 -4 18 -8 10 -11z
m-791 -7 c0 -8 -7 -15 -16 -15 -14 0 -14 3 -4 15 7 8 14 15 16 15 2 0 4 -7 4
-15z m707 -7 c-3 -8 -6 -5 -6 6 -1 11 2 17 5 13 3 -3 4 -12 1 -19z"/>
<path d="M5130 8152 c0 -5 -48 -12 -107 -16 -59 -4 -112 -11 -118 -15 -5 -5
-38 -12 -73 -16 -34 -4 -64 -10 -67 -15 -3 -4 -29 -11 -60 -15 -30 -3 -57 -10
-60 -15 -3 -5 -26 -12 -50 -16 -25 -3 -45 -10 -45 -14 0 -4 -16 -11 -35 -14
-19 -4 -47 -13 -62 -21 -15 -8 -36 -15 -45 -15 -10 0 -18 -4 -18 -10 0 -5 -8
-10 -17 -10 -10 -1 -36 -9 -58 -20 -22 -11 -46 -19 -52 -20 -7 0 -13 -4 -13
-9 0 -5 -13 -12 -30 -16 -16 -4 -30 -10 -30 -15 0 -5 -13 -11 -30 -15 -16 -4
-30 -10 -30 -14 0 -3 -12 -12 -27 -19 -51 -23 -73 -37 -73 -44 0 -5 -6 -8 -14
-8 -8 0 -21 -6 -28 -13 -7 -7 -24 -18 -38 -25 -40 -19 -63 -35 -87 -59 -12
-13 -26 -23 -32 -23 -5 0 -16 -6 -23 -12 -7 -7 -29 -24 -49 -38 -20 -14 -58
-43 -84 -65 -62 -52 -315 -301 -315 -310 0 -3 -13 -20 -30 -37 -17 -16 -30
-35 -30 -41 -1 -7 -14 -23 -30 -37 -17 -13 -30 -30 -30 -37 0 -7 -4 -13 -8
-13 -5 0 -14 -10 -21 -22 -21 -40 -71 -118 -81 -128 -10 -10 -31 -45 -43 -72
-6 -16 -14 -28 -18 -28 -4 0 -10 -11 -13 -25 -4 -14 -10 -25 -15 -25 -5 0 -12
-13 -16 -30 -4 -16 -10 -30 -15 -30 -5 0 -11 -13 -15 -30 -4 -16 -10 -30 -15
-30 -5 0 -11 -13 -15 -30 -4 -16 -10 -30 -15 -30 -4 0 -11 -16 -14 -35 -4 -19
-11 -35 -16 -35 -5 0 -12 -16 -16 -35 -3 -19 -10 -35 -14 -35 -5 0 -11 -18
-15 -40 -4 -22 -11 -40 -15 -40 -5 0 -12 -20 -16 -45 -3 -25 -10 -48 -15 -51
-5 -3 -9 -13 -9 -23 0 -10 -9 -47 -20 -81 -11 -34 -20 -78 -20 -96 0 -19 -4
-34 -9 -34 -5 0 -12 -35 -16 -77 -3 -43 -12 -89 -18 -102 -18 -35 -17 -753 1
-759 7 -2 12 -21 12 -45 1 -23 5 -62 11 -87 6 -25 15 -70 20 -100 5 -30 14
-63 19 -72 6 -10 10 -24 10 -31 0 -19 41 -150 50 -162 5 -5 11 -27 15 -47 4
-21 11 -38 16 -38 5 0 9 -7 9 -16 0 -14 12 -45 56 -141 8 -17 14 -36 14 -42 0
-6 4 -11 9 -11 5 0 12 -13 16 -30 4 -16 10 -30 14 -30 3 0 12 -12 18 -27 13
-30 34 -65 44 -73 4 -3 10 -16 14 -30 4 -13 14 -30 21 -38 8 -7 14 -19 14 -27
0 -7 7 -15 15 -19 8 -3 15 -12 15 -21 0 -8 4 -15 9 -15 5 0 14 -13 20 -30 5
-16 15 -30 20 -30 6 0 11 -5 11 -11 0 -6 12 -26 27 -44 51 -59 63 -75 63 -83
0 -4 12 -19 28 -32 15 -14 39 -41 54 -61 34 -46 218 -229 230 -229 4 0 28 -20
51 -45 24 -25 47 -45 51 -45 4 0 17 -11 30 -25 13 -14 28 -25 33 -25 5 0 18
-9 28 -20 10 -11 24 -20 31 -20 7 0 14 -3 16 -7 5 -12 66 -53 78 -53 5 0 10
-4 10 -8 0 -4 26 -21 58 -37 31 -17 59 -33 62 -37 3 -3 17 -9 32 -13 15 -4 29
-13 32 -21 3 -8 12 -14 21 -14 8 0 15 -4 15 -9 0 -5 14 -12 30 -16 17 -4 30
-11 30 -15 0 -5 17 -12 37 -16 21 -4 44 -13 51 -21 7 -7 22 -13 33 -13 10 0
19 -4 19 -9 0 -5 16 -12 35 -15 19 -4 35 -11 35 -16 0 -5 20 -12 45 -16 25 -3
45 -10 45 -15 0 -4 20 -11 45 -15 25 -3 45 -10 45 -15 0 -4 21 -11 48 -15 26
-4 49 -10 52 -14 5 -7 84 -23 215 -44 44 -7 89 -17 100 -22 30 -14 718 -12
736 2 8 7 51 15 97 19 45 4 84 11 87 15 3 4 32 11 65 15 33 4 60 11 60 15 0 4
25 11 55 15 30 3 55 10 55 14 0 5 17 11 39 15 21 3 51 13 67 21 16 8 37 15 47
15 9 0 17 4 17 9 0 5 18 11 40 15 22 3 40 10 40 16 0 5 16 12 35 16 19 3 35
10 35 14 0 5 14 11 30 15 17 4 30 10 30 15 0 5 14 11 30 15 17 4 30 10 30 15
0 5 14 11 30 15 17 4 30 11 30 16 0 5 11 11 25 15 14 3 25 9 25 13 0 4 16 13
35 20 19 7 35 16 35 21 0 4 11 11 25 14 14 4 25 11 25 16 0 6 7 10 15 10 9 0
18 7 21 15 4 8 10 15 15 15 12 0 90 56 129 91 16 15 33 28 38 30 28 11 342
307 342 323 0 4 13 21 29 39 60 66 91 105 91 116 0 6 4 11 8 11 10 0 92 122
92 137 0 6 7 13 15 17 8 3 15 12 15 21 0 8 4 15 9 15 5 0 12 11 15 25 4 14 10
25 15 25 5 0 12 13 16 29 3 16 13 32 21 35 8 3 14 12 14 21 0 8 4 15 9 15 5 0
12 14 16 30 4 16 10 30 15 30 5 0 11 14 15 30 4 16 11 30 15 30 5 0 12 16 16
35 3 19 10 35 14 35 4 0 11 16 14 35 4 19 11 35 16 35 4 0 11 18 15 40 4 22
10 40 15 40 5 0 11 18 15 40 4 22 10 42 15 45 4 3 11 25 14 50 4 25 11 45 16
45 4 0 11 27 15 60 4 33 11 60 15 60 5 0 12 30 15 68 4 37 11 72 16 77 4 6 11
59 15 118 4 59 11 110 15 113 12 7 11 460 -1 498 -5 17 -13 74 -19 126 -5 52
-16 129 -25 170 -8 41 -20 101 -26 133 -7 31 -16 57 -21 57 -5 0 -9 12 -9 28
0 15 -7 40 -15 56 -8 15 -15 36 -15 45 0 9 -7 29 -15 45 -8 15 -15 33 -15 40
-1 6 -9 29 -20 51 -11 22 -19 48 -20 58 0 9 -4 17 -9 17 -5 0 -12 14 -16 30
-4 17 -10 30 -15 30 -5 0 -11 14 -15 30 -4 17 -10 30 -15 30 -5 0 -11 14 -15
30 -4 17 -10 30 -15 30 -5 0 -11 14 -15 30 -4 17 -11 30 -16 30 -5 0 -11 11
-15 25 -3 14 -10 25 -15 25 -5 0 -9 7 -9 15 0 9 -6 18 -14 21 -8 3 -17 17 -21
32 -4 15 -10 29 -13 32 -4 3 -20 25 -37 50 -44 66 -88 124 -102 133 -7 4 -13
13 -13 19 0 6 -10 20 -22 32 -13 12 -35 37 -50 57 -34 46 -221 233 -267 267
-20 15 -45 37 -57 50 -12 12 -25 22 -30 22 -5 0 -20 12 -33 25 -13 14 -29 25
-36 25 -7 0 -15 7 -19 15 -3 8 -10 15 -16 15 -6 0 -16 5 -23 10 -48 41 -62 50
-74 50 -7 0 -13 4 -13 10 0 5 -11 12 -24 16 -14 3 -27 12 -30 20 -3 8 -12 14
-21 14 -8 0 -15 4 -15 9 0 5 -11 12 -25 15 -14 4 -25 10 -25 15 0 5 -13 12
-30 16 -16 4 -30 10 -30 15 0 5 -13 11 -30 15 -16 4 -30 10 -30 15 0 4 -12 11
-27 15 -15 3 -30 10 -33 13 -8 11 -72 41 -102 48 -16 3 -28 10 -28 15 0 5 -8
9 -17 9 -10 0 -31 7 -46 15 -15 8 -43 17 -63 21 -19 3 -37 10 -40 15 -2 5 -27
11 -54 15 -28 4 -50 10 -50 14 0 8 -29 15 -180 44 -36 7 -72 15 -80 19 -52 23
-740 50 -740 29z m620 -355 c157 -26 264 -48 275 -57 5 -4 31 -11 58 -15 26
-4 47 -11 47 -15 0 -5 18 -11 40 -15 22 -4 40 -11 40 -16 0 -5 18 -12 40 -15
22 -4 40 -10 40 -14 0 -5 14 -11 30 -15 17 -4 30 -10 30 -15 0 -5 14 -11 30
-15 17 -4 30 -10 30 -15 0 -5 14 -11 30 -15 17 -4 30 -10 30 -15 0 -4 12 -11
27 -15 15 -3 30 -10 33 -13 6 -9 38 -29 70 -44 14 -7 27 -15 30 -18 10 -10 69
-50 75 -50 3 0 11 -5 18 -10 7 -6 44 -34 83 -63 111 -82 304 -255 304 -272 0
-5 15 -23 33 -40 44 -45 67 -73 67 -85 0 -6 4 -10 8 -10 5 0 26 -25 48 -56 21
-30 45 -62 52 -69 6 -7 12 -16 12 -20 0 -5 39 -64 50 -75 3 -3 16 -25 29 -50
14 -25 27 -47 30 -50 10 -9 81 -156 81 -168 0 -7 4 -12 9 -12 5 0 12 -13 16
-30 4 -16 11 -32 16 -35 5 -4 9 -14 9 -23 1 -9 9 -35 20 -57 11 -22 19 -50 20
-62 0 -13 4 -23 9 -23 5 0 12 -19 16 -42 4 -24 11 -47 15 -53 4 -5 11 -34 15
-62 4 -29 11 -55 15 -58 5 -3 12 -40 15 -83 4 -42 13 -80 19 -84 8 -5 11 -108
11 -348 0 -240 -3 -343 -11 -348 -6 -4 -15 -42 -19 -84 -3 -43 -10 -78 -15
-78 -4 0 -11 -27 -15 -60 -4 -33 -10 -60 -15 -60 -4 0 -10 -22 -14 -50 -4 -27
-11 -50 -15 -50 -5 0 -12 -18 -16 -40 -4 -22 -11 -40 -16 -40 -5 0 -9 -7 -9
-16 0 -23 -123 -290 -141 -304 -4 -3 -9 -15 -13 -27 -4 -13 -11 -23 -16 -23
-5 0 -11 -13 -15 -29 -3 -16 -13 -32 -21 -35 -8 -3 -14 -12 -14 -20 0 -8 -3
-16 -7 -18 -9 -4 -53 -65 -53 -73 0 -6 -127 -165 -139 -175 -4 -3 -25 -27 -46
-54 -40 -50 -102 -116 -109 -116 -4 0 -53 -42 -111 -95 -18 -16 -43 -37 -55
-45 -12 -8 -41 -29 -64 -46 -86 -64 -193 -134 -203 -134 -6 0 -13 -3 -15 -7
-4 -10 -211 -113 -226 -113 -7 0 -12 -4 -12 -10 0 -5 -6 -10 -12 -10 -7 0 -25
-6 -39 -14 -14 -7 -42 -16 -62 -20 -21 -4 -37 -11 -37 -16 0 -5 -20 -12 -45
-16 -25 -3 -45 -10 -45 -13 0 -7 -40 -17 -175 -44 -33 -7 -65 -15 -71 -19 -5
-4 -56 -10 -112 -14 -56 -4 -102 -11 -102 -15 0 -12 -447 -12 -454 0 -3 4 -52
11 -108 15 -56 4 -107 11 -113 15 -5 5 -35 12 -65 16 -30 4 -59 11 -65 15 -5
4 -30 11 -55 15 -25 4 -49 11 -55 15 -5 4 -26 11 -45 15 -19 4 -39 11 -45 15
-5 4 -25 11 -42 15 -18 3 -33 11 -33 16 0 5 -7 9 -16 9 -9 0 -35 9 -58 19 -78
36 -114 51 -125 51 -6 0 -11 3 -11 8 0 4 -9 12 -19 17 -82 43 -128 69 -166 95
-24 16 -46 30 -49 30 -3 0 -14 7 -23 15 -30 24 -154 115 -158 115 -4 0 -95 84
-178 166 -59 57 -136 144 -167 188 -8 12 -20 26 -27 31 -20 16 -173 248 -173
262 0 7 -3 13 -8 13 -8 0 -23 26 -42 73 -7 15 -16 27 -21 27 -5 0 -9 5 -9 11
0 9 -13 40 -50 124 -39 88 -50 116 -50 129 0 8 -4 17 -9 20 -5 4 -12 24 -16
46 -4 22 -10 40 -15 40 -4 0 -11 25 -15 55 -3 30 -10 55 -15 55 -4 0 -11 30
-15 68 -4 37 -11 69 -15 72 -5 3 -12 51 -16 108 -4 56 -11 102 -15 102 -12 0
-12 467 0 474 4 3 12 51 15 106 4 55 11 100 16 100 4 0 11 32 14 70 4 39 11
70 16 70 4 0 11 23 15 50 4 28 11 50 15 50 5 0 12 20 16 45 3 25 10 45 14 45
4 0 11 16 14 35 4 19 13 47 21 62 8 15 15 34 15 41 0 6 4 12 9 12 5 0 12 16
15 35 4 19 11 35 16 35 4 0 11 14 15 30 4 17 10 30 15 30 5 0 11 14 15 30 4
17 10 30 15 30 5 0 12 10 16 22 3 12 13 28 20 36 8 7 14 20 14 28 0 8 4 14 9
14 5 0 13 10 17 22 3 12 10 26 15 32 41 49 49 60 49 68 0 4 7 16 16 26 8 9 36
44 62 77 26 33 62 76 79 95 18 19 33 38 33 42 0 10 98 105 146 143 21 17 54
45 72 63 18 17 37 32 42 32 6 0 10 3 10 8 0 4 21 21 45 37 25 17 45 33 45 38
0 4 5 7 10 7 12 0 73 41 78 53 2 4 7 7 12 7 5 0 32 16 61 35 30 19 59 35 66
35 7 0 13 4 13 8 0 4 12 13 28 19 15 7 55 28 89 47 35 19 76 37 93 41 16 4 30
10 30 15 0 4 16 11 35 14 19 4 35 11 35 15 0 5 20 12 45 15 25 4 45 11 45 16
0 4 23 11 50 15 28 4 50 10 50 15 0 4 37 13 83 20 45 6 87 15 92 20 6 4 48 11
95 15 47 4 94 11 105 16 34 14 509 3 615 -14z"/>
<path d="M5145 7520 c-151 -23 -201 -32 -215 -40 -8 -4 -36 -11 -62 -14 -26
-4 -50 -11 -53 -17 -4 -5 -16 -9 -28 -9 -12 0 -34 -6 -48 -14 -14 -7 -42 -16
-62 -20 -21 -4 -37 -11 -37 -16 0 -6 -7 -10 -16 -10 -9 0 -28 -6 -42 -14 -15
-8 -51 -24 -79 -37 -29 -13 -53 -27 -53 -31 0 -3 -13 -9 -30 -13 -16 -4 -30
-10 -30 -15 0 -4 -11 -11 -25 -14 -14 -4 -25 -11 -25 -16 0 -6 -4 -10 -10 -10
-9 0 -152 -93 -176 -115 -7 -5 -24 -19 -40 -30 -100 -72 -274 -249 -344 -349
-8 -12 -20 -27 -27 -34 -7 -7 -13 -17 -13 -21 0 -7 -8 -18 -49 -67 -5 -6 -12
-20 -15 -32 -4 -12 -11 -22 -16 -22 -5 0 -11 -13 -15 -30 -4 -16 -11 -30 -15
-30 -5 0 -31 -46 -58 -102 -70 -147 -82 -174 -82 -192 0 -9 -4 -16 -9 -16 -6
0 -13 -20 -17 -45 -3 -25 -10 -45 -15 -45 -4 0 -11 -20 -15 -45 -3 -25 -10
-48 -14 -50 -5 -3 -12 -31 -16 -63 -4 -31 -10 -59 -14 -62 -14 -9 -32 -224
-33 -390 -1 -159 17 -374 33 -395 4 -5 11 -36 14 -67 4 -32 11 -60 16 -63 4
-3 11 -28 15 -55 4 -27 11 -52 15 -55 5 -3 11 -23 15 -45 4 -22 10 -40 15 -40
4 0 11 -16 14 -35 4 -19 11 -35 16 -35 6 0 10 -7 10 -15 0 -8 9 -31 19 -52 10
-21 27 -57 37 -80 10 -24 21 -43 26 -43 4 0 8 -6 8 -14 0 -8 6 -21 14 -28 7
-8 17 -25 21 -38 4 -13 13 -30 19 -37 27 -30 34 -41 40 -60 4 -12 13 -24 21
-27 8 -3 15 -12 15 -21 0 -8 4 -15 8 -15 4 0 15 -13 25 -29 9 -16 32 -46 49
-68 39 -45 221 -227 263 -263 62 -51 115 -90 125 -90 6 0 10 -4 10 -8 0 -5 10
-14 23 -21 12 -6 36 -20 52 -31 17 -11 41 -25 55 -32 14 -7 31 -18 38 -25 7
-7 20 -13 28 -13 8 0 14 -4 14 -9 0 -5 14 -12 30 -16 17 -4 30 -10 30 -15 0
-5 14 -11 30 -15 17 -4 30 -10 30 -15 0 -4 16 -11 35 -14 19 -4 35 -11 35 -16
0 -5 16 -12 35 -16 19 -3 37 -10 40 -14 3 -5 23 -11 45 -15 22 -4 40 -11 40
-15 0 -5 25 -12 55 -15 30 -4 55 -11 55 -15 0 -4 26 -11 58 -15 31 -4 62 -11
67 -15 18 -15 223 -32 380 -33 150 -1 371 18 390 33 6 4 38 11 73 15 34 4 62
10 62 15 0 4 23 10 50 14 28 4 50 11 50 16 0 6 9 10 21 10 21 0 66 17 122 46
16 8 34 14 40 14 15 0 161 73 165 82 2 5 10 8 17 8 8 0 20 6 27 13 7 6 39 26
71 42 31 17 57 33 57 38 0 4 5 7 10 7 14 0 106 68 190 140 82 69 162 150 220
220 24 30 48 57 52 58 5 2 8 10 8 18 0 8 5 14 10 14 6 0 16 12 23 28 6 15 17
31 24 35 7 4 13 14 13 22 0 7 3 15 8 17 11 5 52 66 52 78 0 5 4 10 9 10 5 0
12 11 15 25 4 14 10 25 15 25 5 0 12 13 16 30 4 16 10 30 15 30 4 0 11 12 15
27 3 15 10 30 13 33 11 8 41 72 48 103 3 15 10 27 14 27 5 0 12 20 16 45 3 25
10 45 15 45 4 0 11 20 15 45 3 25 10 45 13 45 8 0 25 70 44 185 7 39 16 76 20
83 14 22 20 428 8 522 -21 159 -32 225 -41 245 -5 11 -11 37 -15 59 -3 21 -10
46 -14 55 -5 9 -19 49 -32 89 -13 41 -27 76 -31 79 -5 2 -8 11 -8 20 0 19 -99
223 -117 241 -7 7 -13 20 -13 28 0 8 -4 14 -10 14 -5 0 -10 6 -10 13 0 13
-118 190 -160 242 -87 104 -324 325 -349 325 -6 0 -11 5 -11 10 0 6 -8 14 -17
17 -10 4 -29 17 -43 30 -14 13 -34 26 -45 29 -11 4 -22 10 -25 13 -18 25 -262
149 -365 186 -27 10 -54 22 -60 26 -5 4 -28 10 -50 14 -22 4 -44 11 -50 15 -5
5 -28 11 -50 15 -22 3 -49 10 -60 15 -19 9 -95 22 -235 40 -78 11 -405 10
-475 0z m503 -342 c67 -6 122 -14 122 -18 0 -5 27 -11 60 -15 33 -4 60 -11 60
-15 0 -5 20 -12 45 -16 25 -3 45 -10 45 -15 0 -5 8 -9 18 -9 9 0 29 -6 43 -14
14 -7 38 -16 55 -20 16 -4 31 -11 34 -15 3 -4 23 -16 45 -28 101 -52 113 -60
154 -93 13 -11 28 -20 33 -20 4 0 17 -8 27 -17 31 -29 70 -61 103 -84 58 -42
232 -225 276 -291 13 -21 29 -38 33 -38 5 0 9 -5 9 -10 0 -9 35 -65 50 -80 3
-3 16 -27 30 -55 14 -27 27 -52 30 -55 15 -15 80 -165 80 -184 0 -9 4 -16 9
-16 5 0 12 -20 15 -45 4 -25 11 -45 16 -45 4 0 11 -27 15 -60 4 -33 11 -60 15
-60 4 0 11 -43 15 -95 4 -52 11 -95 16 -95 12 0 12 -367 0 -374 -4 -3 -12 -46
-15 -96 -4 -49 -11 -92 -16 -95 -4 -3 -11 -29 -15 -58 -4 -28 -11 -56 -15 -62
-4 -5 -11 -25 -15 -43 -4 -18 -13 -45 -21 -60 -8 -15 -14 -35 -14 -44 0 -10
-4 -18 -10 -18 -5 0 -10 -6 -10 -12 0 -18 -70 -157 -102 -202 -16 -21 -28 -45
-28 -53 0 -7 -4 -13 -8 -13 -4 0 -21 -20 -36 -44 -15 -24 -37 -54 -49 -67 -12
-13 -37 -41 -56 -64 -62 -74 -136 -150 -171 -175 -19 -13 -39 -29 -45 -35 -31
-34 -189 -145 -206 -145 -5 0 -9 -4 -9 -10 0 -5 -5 -10 -11 -10 -7 0 -33 -13
-58 -28 -25 -15 -66 -36 -91 -47 -25 -10 -64 -27 -87 -37 -23 -10 -49 -18 -57
-18 -8 0 -17 -4 -20 -9 -4 -5 -29 -12 -56 -16 -28 -4 -50 -10 -50 -15 0 -4
-30 -11 -67 -15 -38 -4 -74 -12 -82 -18 -20 -16 -569 -17 -579 -1 -4 6 -37 15
-74 18 -37 4 -70 11 -73 16 -3 4 -26 11 -52 15 -27 4 -50 10 -53 13 -3 4 -35
17 -72 30 -65 23 -229 102 -258 126 -8 6 -27 18 -42 26 -15 7 -37 21 -47 32
-11 10 -24 18 -30 18 -5 0 -11 3 -13 8 -1 4 -19 19 -39 34 -106 79 -237 210
-313 313 -17 22 -33 42 -36 45 -19 16 -107 162 -150 251 -29 57 -55 111 -60
120 -5 9 -12 33 -15 53 -4 20 -11 36 -15 36 -5 0 -11 23 -15 50 -4 28 -11 50
-15 50 -5 0 -12 30 -15 68 -4 37 -13 73 -19 81 -16 20 -16 562 0 582 6 8 15
44 19 82 3 37 11 67 16 67 5 0 9 10 9 23 0 27 42 161 52 165 5 2 8 8 8 13 0
16 69 168 81 179 3 3 15 25 28 50 13 24 43 71 67 102 24 32 44 62 44 67 0 5 4
11 9 13 5 2 25 23 46 48 90 109 175 189 320 299 22 17 45 35 52 41 7 5 17 10
22 10 5 0 16 6 23 13 21 19 50 36 81 48 15 6 27 15 27 19 0 5 14 11 30 15 17
4 30 11 30 16 0 5 7 9 15 9 8 0 32 9 52 20 21 11 45 20 55 20 9 0 19 4 22 9 4
5 24 12 46 16 22 4 42 10 45 15 3 4 29 11 58 15 28 4 57 11 62 15 9 8 175 26
295 34 68 4 177 -1 338 -16z"/>
</g>
</svg>
